<?xml version="1.0" encoding="iso-8859-1"?>
<!-- Generator: Adobe Illustrator 19.0.0, SVG Export Plug-In . SVG Version: 6.00 Build 0)  -->
<svg version="1.1" id="Layer_1" xmlns="http://www.w3.org/2000/svg" xmlns:xlink="http://www.w3.org/1999/xlink" x="0px" y="0px"
	 viewBox="0 0 511.999 511.999" style="enable-background:new 0 0 511.999 511.999;" xml:space="preserve">
<path style="fill:#E0E0E2;" d="M407.951,506.497L255.999,354.548L104.048,506.497c-11.756,11.758-31.975,3.429-31.975-13.244V95.857
	c0-10.345,8.387-18.731,18.731-18.731h330.392c10.345,0,18.731,8.387,18.731,18.731v397.396
	C439.926,509.97,419.669,518.216,407.951,506.497z"/>
<path style="fill:#C7C5CA;" d="M421.195,77.126H255.999v277.422l151.952,151.949c11.718,11.718,31.975,3.473,31.975-13.244V95.857
	C439.926,85.513,431.541,77.126,421.195,77.126z"/>
<path style="fill:#2586FD;" d="M439.926,114.588H72.072V18.731C72.072,8.387,80.458,0,90.803,0h330.392
	c10.345,0,18.731,8.387,18.731,18.731V114.588z"/>
<path style="fill:#3A4DE2;" d="M439.926,18.731C439.926,8.387,431.539,0,421.195,0H255.999v114.588h183.927V18.731z"/>
<g>
</g>
<g>
</g>
<g>
</g>
<g>
</g>
<g>
</g>
<g>
</g>
<g>
</g>
<g>
</g>
<g>
</g>
<g>
</g>
<g>
</g>
<g>
</g>
<g>
</g>
<g>
</g>
<g>
</g>
</svg>
