<?xml version="1.0" encoding="iso-8859-1"?>
<!-- Generator: Adobe Illustrator 19.0.0, SVG Export Plug-In . SVG Version: 6.00 Build 0)  -->
<svg version="1.1" id="Layer_1" xmlns="http://www.w3.org/2000/svg" xmlns:xlink="http://www.w3.org/1999/xlink" x="0px" y="0px"
	 viewBox="0 0 512 512" style="enable-background:new 0 0 512 512;" xml:space="preserve">
<polygon style="fill:#027ACD;" points="99.063,243.522 84.269,276.196 48.576,272.671 20.775,224.518 51.738,206.641 "/>
<path style="fill:#3EAFF5;" d="M80.699,328.308l178.084-28.634l205.875-118.862c30.727-17.74,41.256-57.032,23.515-87.759l0,0
	L285.037,186.2L80.699,328.308z"/>
<path style="fill:#7ACDFF;" d="M488.172,93.052c-17.74-30.727-57.032-41.256-87.759-23.515L48.576,272.671l32.122,55.637l0,0
	l122.302-70.611l34.981-44.329l72.912-17.964L488.172,93.052L488.172,93.052z"/>
<g>
	
		<rect x="343.961" y="145.63" transform="matrix(-0.866 0.5 -0.5 -0.866 753.2369 120.7726)" style="fill:#FFC222;" width="32.952" height="31.346"/>
	
		<rect x="393.137" y="117.241" transform="matrix(-0.866 0.5 -0.5 -0.866 830.8054 43.2095)" style="fill:#FFC222;" width="32.952" height="31.346"/>
</g>
<polygon style="fill:#027ACD;" points="147.843,194.104 203.001,257.697 310.894,195.404 222.229,151.158 173.127,155.374 "/>
<polygon style="fill:#3EAFF5;" points="133.564,106.911 92.686,130.512 147.843,194.104 222.229,151.158 "/>
<polygon style="fill:#9D9D9D;" points="512,419.731 256,419.731 235.101,435.404 256,451.078 512,451.078 "/>
<rect y="419.734" style="fill:#D4D4D4;" width="256" height="31.347"/>
<g>
</g>
<g>
</g>
<g>
</g>
<g>
</g>
<g>
</g>
<g>
</g>
<g>
</g>
<g>
</g>
<g>
</g>
<g>
</g>
<g>
</g>
<g>
</g>
<g>
</g>
<g>
</g>
<g>
</g>
</svg>
