<?xml version="1.0" encoding="iso-8859-1"?>
<!-- Generator: Adobe Illustrator 19.0.0, SVG Export Plug-In . SVG Version: 6.00 Build 0)  -->
<svg version="1.1" id="Layer_1" xmlns="http://www.w3.org/2000/svg" xmlns:xlink="http://www.w3.org/1999/xlink" x="0px" y="0px"
	 viewBox="0 0 512 512" style="enable-background:new 0 0 512 512;" xml:space="preserve">
<g>
	<path style="fill:#2D527C;" d="M427.924,512H84.076c-27.353,0-49.607-22.254-49.607-49.607V49.607C34.469,22.254,56.723,0,84.076,0
		h343.849c27.353,0,49.607,22.254,49.607,49.607v270.89c0,7.801-6.323,14.124-14.124,14.124s-14.124-6.323-14.124-14.124V49.607
		c0-11.777-9.582-21.359-21.359-21.359H84.076c-11.777,0-21.359,9.582-21.359,21.359v412.786c0,11.777,9.582,21.359,21.359,21.359
		h343.849c11.777,0,21.359-9.582,21.359-21.359v-60.569c0-7.801,6.323-14.124,14.124-14.124s14.124,6.323,14.124,14.124v60.569
		C477.531,489.746,455.277,512,427.924,512z"/>
	<path style="fill:#2D527C;" d="M377.219,449.779H134.781c-21.004,0-38.091-17.087-38.091-38.091V199.856
		c0-7.801,6.323-14.124,14.124-14.124s14.124,6.323,14.124,14.124v211.832c0,5.428,4.415,9.843,9.843,9.843h242.437
		c5.428,0,9.843-4.415,9.843-9.843V199.856c0-7.801,6.323-14.124,14.124-14.124c7.801,0,14.124,6.323,14.124,14.124v211.832
		C415.31,432.691,398.223,449.779,377.219,449.779z"/>
</g>
<path style="fill:#CEE8FA;" d="M463.407,115.111V49.607c0-19.597-15.887-35.483-35.483-35.483H84.076
	c-19.597,0-35.483,15.887-35.483,35.483v65.504H463.407z"/>
<path style="fill:#2D527C;" d="M463.407,129.235H48.593c-7.801,0-14.124-6.323-14.124-14.124V49.607
	C34.469,22.254,56.723,0,84.076,0h343.849c27.353,0,49.607,22.254,49.607,49.607v65.504
	C477.531,122.911,471.208,129.235,463.407,129.235z M62.717,100.986h386.566v-51.38c0-11.777-9.582-21.359-21.359-21.359H84.076
	c-11.777,0-21.359,9.582-21.359,21.359V100.986z"/>
<circle style="fill:#CEE8FA;" cx="256.001" cy="290.252" r="98.869"/>
<g>
	<path style="fill:#2D527C;" d="M256.001,403.245c-62.305,0-112.993-50.689-112.993-112.993s50.689-112.993,112.993-112.993
		s112.993,50.689,112.993,112.993S318.305,403.245,256.001,403.245z M256.001,205.507c-46.728,0-84.745,38.017-84.745,84.745
		s38.017,84.745,84.745,84.745s84.745-38.017,84.745-84.745S302.728,205.507,256.001,205.507z"/>
	<path style="fill:#2D527C;" d="M198.798,304.376h-41.666c-7.801,0-14.124-6.323-14.124-14.124s6.323-14.124,14.124-14.124h41.668
		c7.801,0,14.124,6.323,14.124,14.124S206.599,304.376,198.798,304.376z"/>
	<path style="fill:#2D527C;" d="M215.041,78.742H103.46c-7.801,0-14.124-6.323-14.124-14.124s6.323-14.124,14.124-14.124h111.581
		c7.801,0,14.124,6.323,14.124,14.124S222.84,78.742,215.041,78.742z"/>
</g>
<g>
</g>
<g>
</g>
<g>
</g>
<g>
</g>
<g>
</g>
<g>
</g>
<g>
</g>
<g>
</g>
<g>
</g>
<g>
</g>
<g>
</g>
<g>
</g>
<g>
</g>
<g>
</g>
<g>
</g>
</svg>
