<?xml version="1.0" encoding="iso-8859-1"?>
<!-- Generator: Adobe Illustrator 19.0.0, SVG Export Plug-In . SVG Version: 6.00 Build 0)  -->
<svg version="1.1" id="Layer_1" xmlns="http://www.w3.org/2000/svg" xmlns:xlink="http://www.w3.org/1999/xlink" x="0px" y="0px"
	 viewBox="0 0 326.476 326.476" style="enable-background:new 0 0 326.476 326.476;" xml:space="preserve">
<path style="fill:#C8546F;" d="M239.757,222.15V99.721H86.721V222.15c0,0,45.552-20.616,91.822,0S239.757,222.15,239.757,222.15z"/>
<g>
	<rect x="5.101" y="171.14" style="fill:#FEB860;" width="61.21" height="15.304"/>
	<rect x="260.16" y="171.14" style="fill:#FEB860;" width="61.21" height="15.304"/>
</g>
<g>
	<rect x="300.97" y="74.22" style="fill:#9B4573;" width="15.304" height="40.809"/>
	<rect x="10.203" y="74.22" style="fill:#9B4573;" width="15.304" height="40.809"/>
</g>
<g>
	<path style="fill:#FEC986;" d="M122.429,99.721L122.429,99.721c-11.27,0-20.405-9.135-20.405-20.404l0,0h40.81l0,0
		C142.834,90.586,133.698,99.721,122.429,99.721z"/>
	<path style="fill:#FEC986;" d="M204.048,99.721L204.048,99.721c-11.269,0-20.405-9.135-20.405-20.404l0,0h40.81l0,0
		C224.453,90.586,215.317,99.721,204.048,99.721z"/>
</g>
<g>
	<rect x="102.02" y="115.13" style="fill:#1D1D1B;" width="66.32" height="9.994"/>
	<rect x="178.54" y="115.13" style="fill:#1D1D1B;" width="15.304" height="9.994"/>
	<path style="fill:#1D1D1B;" d="M321.271,247.262v-55.824h5.101v-25.298h-5.101V69.219h-25.298v50.804h15.304v46.119h-56.113v25.298
		h5.101v55.824h-35.916v-11.795c13.488-2.497,19.058-9.838,19.454-10.385l0.951-1.312V94.724h-20.529
		c2.307-3.013,3.956-6.554,4.729-10.41h5.701V74.32h-61.214v9.994h5.701c0.773,3.856,2.422,7.397,4.729,10.41h-41.266
		c2.307-3.013,3.956-6.554,4.729-10.41h5.701V74.32H91.822v9.994h5.701c0.773,3.856,2.422,7.397,4.729,10.41H81.723V222.15
		l0.005,7.724l7.047-3.168c0.146-0.066,5.142-2.26,13.352-4.424v24.981H66.212v-55.824h5.101v-25.298H15.199v-46.119h15.304V69.219
		H5.205v96.923H0.104v25.298h5.101v55.824H0v9.994h326.476v-9.994L321.271,247.262L321.271,247.262z M305.968,110.028V79.213h5.31
		v30.815H305.968z M15.2,79.213h5.31v30.815H15.2V79.213z M316.378,176.136v5.206h-5.101v0.104h-41.018v-0.104h-5.101v-5.206
		H316.378z M270.259,191.439h41.018v55.824h-41.018V191.439z M189.477,84.314h29.143c-2.081,6.049-7.825,10.41-14.572,10.41
		S191.557,90.363,189.477,84.314z M107.858,84.314h29.143c-2.081,6.049-7.824,10.41-14.571,10.41
		C115.683,94.724,109.939,90.363,107.858,84.314z M91.718,104.718H234.76v115.466c-1.498,1.36-4.767,3.731-10.437,5.096
		c-3.68,0.887-8.708,1.401-15.278,0.684v-34.422h-9.994v32.586c-1.696-0.427-3.465-0.926-5.309-1.506v-10.675h-9.994v7.001
		c-1.04-0.433-2.093-0.883-3.172-1.363c-14.904-6.641-29.646-9.215-42.948-9.597v-11.344h-9.994v11.451
		c-1.808,0.091-3.58,0.217-5.309,0.375v-22.029h-9.994v23.323c-8.659,1.449-15.765,3.493-20.613,5.134V104.718z M112.122,220.066
		c16.807-3.04,40.618-3.942,64.386,6.649c15.706,6.998,28.147,9.474,37.846,9.573v10.976H112.122V220.066z M61.318,181.341h-5.101
		v0.104H15.199v-0.104h-5.101v-5.206h51.22V181.341L61.318,181.341z M15.2,191.439h41.018v55.824H15.2V191.439z"/>
</g>
<g>
</g>
<g>
</g>
<g>
</g>
<g>
</g>
<g>
</g>
<g>
</g>
<g>
</g>
<g>
</g>
<g>
</g>
<g>
</g>
<g>
</g>
<g>
</g>
<g>
</g>
<g>
</g>
<g>
</g>
</svg>
