<?xml version="1.0" encoding="iso-8859-1"?>
<!-- Generator: Adobe Illustrator 19.0.0, SVG Export Plug-In . SVG Version: 6.00 Build 0)  -->
<svg version="1.1" id="Layer_1" xmlns="http://www.w3.org/2000/svg" xmlns:xlink="http://www.w3.org/1999/xlink" x="0px" y="0px"
	 viewBox="0 0 504.322 504.322" style="enable-background:new 0 0 504.322 504.322;" xml:space="preserve">
<g>
	<path style="fill:#E6EEF3;" d="M52.068,104.136c0,14.379-11.655,26.034-26.034,26.034S0,118.516,0,104.136
		s11.655-26.034,26.034-26.034S52.068,89.757,52.068,104.136"/>
	<path style="fill:#CAD3DB;" d="M95.458,86.781H60.746H45.308c4.157,4.617,6.76,10.657,6.76,17.356
		c0,6.699-2.603,12.739-6.76,17.356h24.906l16.566,60.746h37.602L95.458,86.781z"/>
	<path style="fill:#A2C3D6;" d="M373.153,190.916c-4.799,0-8.678-3.879-8.678-8.678v-78.102c0-4.799,3.879-8.678,8.678-8.678
		c4.799,0,8.678,3.879,8.678,8.678v78.102C381.831,187.037,377.951,190.916,373.153,190.916"/>
	<path style="fill:#D0E8F9;" d="M416.542,60.747c0,23.96-19.43,43.39-43.39,43.39c-23.96,0-43.39-19.43-43.39-43.39H416.542z"/>
	<path style="fill:#A2C3D6;" d="M459.932,190.916c-4.799,0-8.678-3.879-8.678-8.678v-78.102c0-4.799,3.879-8.678,8.678-8.678
		c4.799,0,8.678,3.879,8.678,8.678v78.102C468.61,187.037,464.731,190.916,459.932,190.916"/>
	<path style="fill:#D0E8F9;" d="M503.322,60.747c0,23.96-19.43,43.39-43.39,43.39c-23.96,0-43.39-19.43-43.39-43.39H503.322z"/>
	<path style="fill:#25B99A;" d="M303.729,121.492c0,33.549-34.964,60.746-78.102,60.746s-78.102-27.197-78.102-60.746H303.729z"/>
	<path style="fill:#C03A2B;" d="M215.355,121.492c0.972-2.725,1.597-5.615,1.597-8.678c0-14.379-11.655-26.034-26.034-26.034
		c-14.379,0-26.034,11.655-26.034,26.034c0,3.063,0.625,5.953,1.588,8.678H215.355z"/>
	<path style="fill:#F0C419;" d="M250.041,121.492h35.866c2.959-24.541-8.617-50.341-42.939-78.102
		C249.919,77.026,255.178,100.587,250.041,121.492"/>
	<polygon style="fill:#E6EEF3;" points="86.776,381.831 503.319,381.831 503.319,182.238 86.776,182.238 	"/>
	<g>
		<path style="fill:#CAD3DB;" d="M407.864,390.509c-4.799,0-8.678-3.879-8.678-8.678v-60.746c0-4.799,3.879-8.678,8.678-8.678
			s8.678,3.879,8.678,8.678v60.746C416.542,386.63,412.663,390.509,407.864,390.509"/>
		<path style="fill:#CAD3DB;" d="M373.153,390.509c-4.799,0-8.678-3.879-8.678-8.678v-26.034c0-4.799,3.879-8.678,8.678-8.678
			c4.799,0,8.678,3.879,8.678,8.678v26.034C381.831,386.63,377.951,390.509,373.153,390.509"/>
		<path style="fill:#CAD3DB;" d="M442.576,390.509c-4.799,0-8.678-3.879-8.678-8.678v-17.356c0-4.799,3.879-8.678,8.678-8.678
			c4.799,0,8.678,3.879,8.678,8.678v17.356C451.254,386.63,447.375,390.509,442.576,390.509"/>
		<path style="fill:#CAD3DB;" d="M225.627,390.509c-4.799,0-8.678-3.879-8.678-8.678V347.12c0-4.799,3.879-8.678,8.678-8.678
			s8.678,3.879,8.678,8.678v34.712C234.305,386.63,230.426,390.509,225.627,390.509"/>
		<path style="fill:#CAD3DB;" d="M156.203,390.509c-4.799,0-8.678-3.879-8.678-8.678v-60.746c0-4.799,3.879-8.678,8.678-8.678
			c4.799,0,8.678,3.879,8.678,8.678v60.746C164.881,386.63,161.002,390.509,156.203,390.509"/>
		<path style="fill:#CAD3DB;" d="M190.915,390.509c-4.799,0-8.678-3.879-8.678-8.678v-26.034c0-4.799,3.879-8.678,8.678-8.678
			c4.799,0,8.678,3.879,8.678,8.678v26.034C199.593,386.63,195.714,390.509,190.915,390.509"/>
		<path style="fill:#CAD3DB;" d="M121.492,355.797c-4.799,0-8.678,3.879-8.678,8.678v17.356h17.356v-17.356
			C130.169,359.676,126.29,355.797,121.492,355.797"/>
	</g>
	<path style="fill:#667D8C;" d="M147.525,446.916c0,16.775-13.598,30.373-30.373,30.373S86.78,463.691,86.78,446.916
		s13.598-30.373,30.373-30.373S147.525,430.142,147.525,446.916"/>
	<path style="fill:none;stroke:#BDC3C7;stroke-width:2;" d="M147.525,446.916c0,16.775-13.598,30.373-30.373,30.373
		S86.78,463.691,86.78,446.916s13.598-30.373,30.373-30.373S147.525,430.142,147.525,446.916L147.525,446.916z"/>
	<polygon style="fill:#556080;" points="121.488,416.543 468.607,416.543 468.607,381.831 121.488,381.831 	"/>
	<path style="fill:#667D8C;" d="M503.322,446.916c0,16.775-13.598,30.373-30.373,30.373s-30.373-13.598-30.373-30.373
		s13.598-30.373,30.373-30.373S503.322,430.142,503.322,446.916"/>
	<path style="fill:none;stroke:#BDC3C7;stroke-width:2;" d="M503.322,446.916c0,16.775-13.598,30.373-30.373,30.373
		s-30.373-13.598-30.373-30.373s13.598-30.373,30.373-30.373S503.322,430.142,503.322,446.916L503.322,446.916z"/>
	<path style="fill:#76A944;" d="M190.924,95.458c-0.356,0-0.72-0.026-1.085-0.069c-4.756-0.59-8.131-4.929-7.532-9.685
		c-0.009,0,0.234-3.515-1.571-5.502c-1.579-1.736-4.782-2.1-7.177-2.1c-4.799,0-8.678-3.879-8.678-8.678s3.879-8.678,8.678-8.678
		c10.873,0,17,4.365,20.237,8.018c6.908,7.828,5.875,17.963,5.727,19.092C198.977,92.248,195.237,95.458,190.924,95.458"/>
	<path style="fill:#A37E11;" d="M251.669,60.746c-2.968,0-5.858-1.519-7.472-4.252c-4.296-7.255-8.669-11.785-13.364-13.824
		c-4.391-1.927-6.404-7.038-4.487-11.429c1.918-4.382,7.012-6.396,11.429-4.487c8.149,3.558,15.134,10.388,21.348,20.888
		c2.447,4.122,1.085,9.45-3.037,11.889C254.697,60.355,253.17,60.746,251.669,60.746"/>
</g>
<g>
</g>
<g>
</g>
<g>
</g>
<g>
</g>
<g>
</g>
<g>
</g>
<g>
</g>
<g>
</g>
<g>
</g>
<g>
</g>
<g>
</g>
<g>
</g>
<g>
</g>
<g>
</g>
<g>
</g>
</svg>
