<?xml version="1.0" encoding="iso-8859-1"?>
<!-- Generator: Adobe Illustrator 17.1.0, SVG Export Plug-In . SVG Version: 6.00 Build 0)  -->
<!DOCTYPE svg PUBLIC "-//W3C//DTD SVG 1.1//EN" "http://www.w3.org/Graphics/SVG/1.1/DTD/svg11.dtd">
<svg version="1.1" id="Capa_1" xmlns="http://www.w3.org/2000/svg" xmlns:xlink="http://www.w3.org/1999/xlink" x="0px" y="0px"
	 viewBox="0 0 399.412 399.412" style="enable-background:new 0 0 399.412 399.412;" xml:space="preserve">
<path id="XMLID_748_" d="M99.889,185.958c0-48.714,31.356-107.446,93.199-174.563c1.704-1.849,4.104-2.901,6.619-2.901
	s4.915,1.052,6.619,2.901c37.21,40.385,63.649,78.191,78.584,112.367c1.99,4.555-0.089,9.861-4.644,11.851
	c-4.555,1.989-9.86-0.088-11.851-4.643c-13.246-30.313-36.341-63.951-68.708-100.092c-53.57,59.848-81.819,113.335-81.819,155.08
	c0,41.951,19.19,73.282,52.649,85.959c4.648,1.761,6.988,6.957,5.228,11.604c-1.363,3.599-4.785,5.814-8.418,5.814
	c-1.06,0-2.137-0.188-3.187-0.586C123.916,273.502,99.889,235.075,99.889,185.958z M224.468,187.095
	c32.466-32.462,79.271-42.655,116.471-25.363c1.925,0.895,3.473,2.442,4.367,4.367c15.081,32.443,9.021,73.747-15.439,105.226
	c-3.046,3.923-6.386,7.706-9.925,11.244c-6.289,6.29-13.258,11.861-20.709,16.557c-28.047,17.661-61.884,21.777-89.863,11.274
	l-3.298,3.297c-1.758,1.757-4.061,2.636-6.364,2.636s-4.606-0.879-6.364-2.636c-3.515-3.515-3.515-9.213,0-12.728l3.293-3.293
	c-1.415-3.757-2.582-7.648-3.485-11.627c-2.291-10.11-2.874-20.681-1.732-31.421c1.449-13.671,5.586-26.99,12.294-39.584
	c4.569-8.578,10.262-16.627,16.919-23.925C221.918,189.708,223.208,188.354,224.468,187.095z M233.929,203.25
	c-5.645,6.188-10.467,13.004-14.33,20.256c-5.617,10.546-9.076,21.657-10.281,33.022c-0.933,8.771-0.466,17.364,1.388,25.54
	c0.095,0.417,0.192,0.831,0.294,1.245l19.16-19.16v-24.483c0-4.971,4.029-9,9-9s9,4.029,9,9v6.483l14.687-14.687l-0.416-23.904
	c-0.086-4.97,3.873-9.069,8.843-9.155c4.95-0.105,9.068,3.873,9.155,8.842l0.113,6.522l13.136-13.136
	c3.516-3.515,9.213-3.515,12.729,0c3.515,3.515,3.515,9.213,0,12.728l-12.764,12.763h5.506c4.971,0,9,4.029,9,9s-4.029,9-9,9
	h-23.505l-14.749,14.749h6.472c4.971,0,9,4.029,9,9c0,4.971-4.029,9-9,9l-24.473,0.001l-19.151,19.152
	c21.066,5.125,45.258,0.865,65.897-12.132c6.316-3.98,12.231-8.709,17.576-14.055c3.011-3.009,5.849-6.224,8.437-9.557
	c19.595-25.218,25.182-57.632,14.654-83.557c-29.878-12.192-66.869-3.142-93.109,23.096
	C236.131,200.888,235.031,202.042,233.929,203.25z M152.495,184.816c0-4.971-4.029-9-9-9s-9,4.029-9,9
	c0,25.303,9.751,46.264,27.456,59.023c1.592,1.147,3.432,1.699,5.254,1.699c2.795,0,5.551-1.298,7.31-3.738
	c2.906-4.033,1.993-9.658-2.04-12.564C163.36,222.668,152.495,209.63,152.495,184.816z M48.423,305.659
	c0,15.757,16.211,28.415,48.184,37.623c27.661,7.966,64.276,12.353,103.101,12.353c38.823,0,75.438-4.387,103.098-12.353
	c31.973-9.208,48.185-21.866,48.185-37.623c0-5.944-2.432-11.576-7.227-16.739c-3.384-3.643-9.077-3.852-12.72-0.47
	c-3.642,3.383-3.853,9.077-0.47,12.719c1.103,1.187,2.416,2.929,2.416,4.49c0,3.527-7.35,12.315-35.165,20.326
	c-26.087,7.513-60.933,11.65-98.117,11.65c-37.187,0-72.032-4.137-98.119-11.65c-27.815-8.01-35.165-16.798-35.165-20.326
	c0-4.303,10.008-13.447,37.579-21.005c4.794-1.314,7.615-6.265,6.301-11.059c-1.313-4.793-6.264-7.614-11.059-6.3
	C65.996,276.408,48.423,289.674,48.423,305.659z M373.249,262.447c-3.984-2.97-9.624-2.148-12.595,1.837
	c-2.971,3.985-2.148,9.624,1.837,12.595c8.632,6.435,18.921,16.651,18.921,28.78c0,16.201-18.297,32.81-50.198,45.566
	c-34.982,13.989-81.686,21.693-131.507,21.693c-49.822,0-96.527-7.704-131.509-21.693C36.297,338.469,18,321.86,18,305.659
	c0-19.062,24.897-38.272,66.6-51.388c4.741-1.491,7.376-6.544,5.885-11.286c-1.49-4.742-6.545-7.377-11.285-5.885
	C28.867,252.931,0,277.919,0,305.659c0,24.299,21.847,46.417,61.515,62.28c37.058,14.818,86.135,22.979,138.192,22.979
	c52.056,0,101.133-8.161,138.19-22.979c39.668-15.863,61.515-37.98,61.515-62.28C399.412,290.149,390.365,275.207,373.249,262.447z"
	/>
<g>
</g>
<g>
</g>
<g>
</g>
<g>
</g>
<g>
</g>
<g>
</g>
<g>
</g>
<g>
</g>
<g>
</g>
<g>
</g>
<g>
</g>
<g>
</g>
<g>
</g>
<g>
</g>
<g>
</g>
</svg>
