<?xml version="1.0" encoding="iso-8859-1"?>
<!-- Generator: Adobe Illustrator 18.0.0, SVG Export Plug-In . SVG Version: 6.00 Build 0)  -->
<!DOCTYPE svg PUBLIC "-//W3C//DTD SVG 1.1//EN" "http://www.w3.org/Graphics/SVG/1.1/DTD/svg11.dtd">
<svg version="1.1" id="Capa_1" xmlns="http://www.w3.org/2000/svg" xmlns:xlink="http://www.w3.org/1999/xlink" x="0px" y="0px"
	 viewBox="0 0 297.5 297.5" style="enable-background:new 0 0 297.5 297.5;" xml:space="preserve">
<g>
	<g id="XMLID_23_">
		<g>
			<path d="M272.79,53.54v157.81c0,22.05-13.47,41.02-32.61,49.11v26.91c0,5.45-4.43,9.88-9.89,9.88c-5.46,0-9.88-4.43-9.88-9.88
				v-22.76c-0.3,0.01-0.6,0.02-0.91,0.02H78c-0.3,0-0.6-0.01-0.9-0.02v22.76c0,5.45-4.43,9.88-9.89,9.88
				c-5.45,0-9.88-4.43-9.88-9.88v-26.91c-19.15-8.09-32.62-27.06-32.62-49.11V53.54C24.71,24.15,48.62,0.25,78,0.25h141.5
				C248.89,0.25,272.79,24.15,272.79,53.54z M253.02,211.35v-60.87H44.48v60.87c0,18.48,15.04,33.52,33.52,33.52h141.5
				C237.99,244.87,253.02,229.83,253.02,211.35z M253.02,130.71V53.54c0-18.49-15.03-33.52-33.52-33.52h-60.86v110.69H253.02z
				 M138.87,130.71V20.02H78c-18.48,0-33.52,15.03-33.52,33.52v77.17H138.87z"/>
			<path style="fill:#1ABC9C;" d="M253.02,150.48v60.87c0,18.48-15.03,33.52-33.52,33.52H78c-18.48,0-33.52-15.04-33.52-33.52
				v-60.87H253.02z M240.18,189.52c0-14.44-11.75-26.19-26.2-26.19c-14.44,0-26.19,11.75-26.19,26.19s11.75,26.19,26.19,26.19
				C228.43,215.71,240.18,203.96,240.18,189.52z M109.71,189.52c0-14.44-11.75-26.19-26.19-26.19s-26.19,11.75-26.19,26.19
				s11.75,26.19,26.19,26.19S109.71,203.96,109.71,189.52z"/>
			<path style="fill:#FFA800;" d="M253.02,53.54v77.17h-94.38V20.02h60.86C237.99,20.02,253.02,35.05,253.02,53.54z"/>
			<path d="M213.98,163.33c14.45,0,26.2,11.75,26.2,26.19s-11.75,26.19-26.2,26.19c-14.44,0-26.19-11.75-26.19-26.19
				S199.54,163.33,213.98,163.33z M220.41,189.52c0-3.54-2.88-6.42-6.43-6.42c-3.54,0-6.42,2.88-6.42,6.42
				c0,3.54,2.88,6.42,6.42,6.42C217.53,195.94,220.41,193.06,220.41,189.52z"/>
			<path style="fill:#FFA800;" d="M213.98,183.1c3.55,0,6.43,2.88,6.43,6.42c0,3.54-2.88,6.42-6.43,6.42
				c-3.54,0-6.42-2.88-6.42-6.42C207.56,185.98,210.44,183.1,213.98,183.1z"/>
			<path style="fill:#FFA800;" d="M138.87,20.02v110.69H44.48V53.54c0-18.49,15.04-33.52,33.52-33.52H138.87z"/>
			<path d="M83.52,163.33c14.44,0,26.19,11.75,26.19,26.19s-11.75,26.19-26.19,26.19s-26.19-11.75-26.19-26.19
				S69.08,163.33,83.52,163.33z M89.95,189.52c0-3.54-2.89-6.42-6.43-6.42c-3.54,0-6.42,2.88-6.42,6.42c0,3.54,2.88,6.42,6.42,6.42
				C87.06,195.94,89.95,193.06,89.95,189.52z"/>
			<path style="fill:#FFA800;" d="M83.52,183.1c3.54,0,6.43,2.88,6.43,6.42c0,3.54-2.89,6.42-6.43,6.42c-3.54,0-6.42-2.88-6.42-6.42
				C77.1,185.98,79.98,183.1,83.52,183.1z"/>
		</g>
		<g>
		</g>
	</g>
</g>
<g>
</g>
<g>
</g>
<g>
</g>
<g>
</g>
<g>
</g>
<g>
</g>
<g>
</g>
<g>
</g>
<g>
</g>
<g>
</g>
<g>
</g>
<g>
</g>
<g>
</g>
<g>
</g>
<g>
</g>
</svg>
